<svg width="1340" height="608" viewBox="0 0 1340 608" fill="none" xmlns="http://www.w3.org/2000/svg">
<path d="M1316.45 1.16861C1308.45 1.83528 1294.31 2.90194 1285.11 3.56861C1275.91 4.36861 1260.45 5.56861 1250.58 6.23528C1240.71 7.03528 1232.45 7.96861 1232.05 8.23528C1231.78 8.63528 1230.58 16.2353 1229.51 25.302C1228.45 34.3686 1227.11 45.302 1226.45 49.702C1225.78 54.102 1224.71 62.7686 1223.91 69.0353C1223.11 75.302 1221.78 84.502 1221.11 89.702C1218.71 105.035 1217.25 115.569 1215.11 132.369C1214.05 141.169 1212.45 152.235 1211.78 157.035C1211.11 161.835 1209.51 173.169 1208.45 182.369C1207.25 191.569 1205.78 202.369 1205.11 206.369C1204.45 210.369 1202.98 222.102 1201.78 232.369C1200.58 242.635 1199.11 254.369 1198.45 258.369C1196.45 270.369 1195.65 282.102 1196.71 282.769C1197.25 283.035 1202.58 282.902 1208.45 282.235C1214.31 281.702 1228.98 280.502 1241.11 279.702C1253.11 278.902 1263.78 277.569 1264.71 276.902C1265.51 276.102 1266.85 273.035 1267.65 269.969C1268.71 265.035 1273.78 246.769 1277.11 235.035C1277.78 232.769 1279.25 227.435 1280.45 223.035C1281.65 218.635 1283.11 213.169 1283.78 211.035C1287.25 199.035 1296.05 167.302 1301.78 145.702C1303.51 139.035 1306.58 127.969 1308.45 121.035C1310.31 114.102 1313.38 102.902 1315.11 96.3686C1318.18 84.6353 1320.05 77.5686 1327.91 48.3686C1334.58 23.702 1339.78 3.16861 1339.78 1.43528C1339.78 -0.431391 1338.71 -0.431391 1316.45 1.16861Z" fill="black"/>
<path d="M513.782 102.369C510.848 103.035 498.848 104.369 487.115 105.702C475.382 106.902 462.582 108.369 458.582 109.035C454.582 109.835 449.648 110.369 447.648 110.369C443.515 110.369 438.448 115.702 438.448 119.969C438.448 121.435 437.248 127.835 435.648 134.235C434.048 140.502 431.382 152.235 429.648 160.369C427.915 168.369 424.982 182.102 423.115 190.635C421.248 199.302 418.182 213.302 416.315 221.702C414.582 230.102 411.515 243.969 409.648 252.369C404.715 275.169 399.648 298.369 398.448 303.702C394.982 319.035 389.915 342.102 387.782 353.035C383.382 374.902 380.048 390.235 372.582 423.035C370.848 431.035 368.982 439.435 368.582 441.702C368.182 443.835 366.982 449.569 365.915 454.369C360.848 476.769 358.448 488.369 358.448 491.302C358.448 494.769 357.382 494.769 382.448 491.702C391.382 490.635 420.582 487.435 439.382 485.569C447.115 484.769 447.915 484.102 449.248 476.369C450.582 469.302 454.048 452.369 455.648 445.702C459.515 428.902 470.315 378.369 472.582 367.035C473.515 361.835 474.982 355.035 475.782 351.702C476.582 348.369 477.782 343.035 478.448 339.702C478.982 336.369 480.848 328.235 482.448 321.702C483.915 315.035 486.182 305.835 487.248 301.035C488.315 296.235 489.648 290.235 490.448 287.702C491.115 285.169 492.182 280.369 492.982 277.035C495.782 265.435 501.248 241.569 503.248 233.035C504.315 228.235 505.782 222.235 506.448 219.702C507.115 217.169 508.582 210.502 509.782 205.035C510.848 199.569 512.448 192.902 513.115 190.369C513.782 187.835 515.248 181.169 516.448 175.702C517.648 170.235 519.115 164.235 519.782 162.369C520.315 160.502 521.382 155.969 522.182 152.369C522.982 148.635 525.515 138.235 527.648 129.035C529.782 119.835 531.915 109.835 532.448 106.635L533.382 101.035L526.182 101.169C522.315 101.302 516.715 101.835 513.782 102.369Z" fill="black"/>
<path d="M395.515 117.835C394.848 118.369 384.982 119.702 349.782 123.702C343.915 124.369 331.915 125.835 323.115 126.902C314.315 128.102 303.648 129.435 299.515 129.835C290.715 130.902 294.048 127.569 261.382 168.369C252.048 180.102 232.448 204.635 217.782 223.035C203.115 241.302 189.248 258.769 187.115 261.569C184.848 264.502 180.715 269.835 177.915 273.569C168.182 286.235 152.448 307.169 150.448 310.235C146.182 316.769 144.182 318.769 142.582 317.835C141.782 317.302 141.515 316.235 141.915 315.435C142.448 314.635 143.382 311.702 143.915 309.169C145.115 303.569 149.915 283.702 151.648 277.035C152.315 274.502 153.915 268.102 155.115 263.035C156.315 257.835 157.782 251.569 158.448 249.035C160.182 242.635 167.248 213.035 169.782 201.702C170.982 196.502 172.448 190.235 172.982 187.702C173.648 185.169 175.248 178.502 176.448 173.035C177.648 167.569 179.248 160.902 179.915 158.369C182.582 147.169 183.782 140.502 183.115 139.969C182.582 139.435 158.048 141.702 131.115 145.035C125.248 145.702 113.915 146.902 105.782 147.702C97.7815 148.502 89.2482 149.435 86.9815 149.835C82.5815 150.502 82.9815 149.302 77.7815 172.369C74.0482 189.035 73.3815 192.235 71.7815 200.369C70.1815 207.969 67.7815 219.169 65.1149 231.035C64.4482 233.969 62.9815 240.902 61.7815 246.369C60.4482 251.835 58.9815 258.102 58.3149 260.369C57.7815 262.502 56.3149 268.902 55.1149 274.369C53.9149 279.835 52.4482 286.769 51.7815 289.702C51.1149 292.635 49.6482 299.169 48.4482 304.369C47.3815 309.435 45.7815 316.102 45.1149 319.035C40.5815 338.769 36.8482 355.569 34.3149 367.035C32.7149 374.369 30.9815 382.502 30.4482 385.035C29.9149 387.569 28.3149 394.502 27.1149 400.369C25.9149 406.235 24.3149 413.169 23.7815 415.702C23.1149 418.235 21.9149 423.302 21.2482 427.035C20.4482 430.635 19.2482 436.102 18.5815 439.035C15.6482 450.635 11.5149 468.369 10.4482 474.235C9.78152 477.569 7.64819 487.302 5.78152 495.702C0.84819 517.969 -0.751809 527.569 0.314857 528.635C0.714857 529.169 6.71486 528.769 13.5149 527.969C20.1815 527.035 34.4482 525.435 45.1149 524.369C76.9815 521.035 90.9815 519.435 92.5815 519.035C94.3149 518.502 96.9815 508.635 105.782 469.035C106.982 463.569 108.582 457.169 109.248 455.035C109.915 452.769 112.848 440.235 115.782 427.035C118.848 413.835 122.715 396.769 124.582 389.035C126.315 381.302 128.448 371.969 129.248 368.369C131.515 358.502 131.515 358.369 133.382 358.369C135.115 358.502 142.315 370.235 152.848 390.369C156.048 396.635 161.915 407.702 165.782 415.035C169.648 422.369 176.315 434.902 180.448 443.035C201.782 483.835 213.648 505.835 215.248 507.569C216.715 509.169 218.582 509.169 226.048 507.969C230.982 507.169 238.982 506.102 243.782 505.702C305.915 500.102 321.248 498.369 323.382 497.302C325.382 496.102 323.382 491.835 311.648 471.702C304.582 459.569 295.248 443.169 267.782 394.369C260.982 382.235 254.048 370.102 252.315 367.435C250.582 364.635 249.115 362.102 249.115 361.702C249.115 361.302 247.782 358.769 246.048 355.969C244.315 353.302 240.448 346.369 237.248 340.769L231.648 330.502L238.715 322.635C242.582 318.369 256.582 302.369 269.782 287.035C300.715 251.302 312.182 238.102 313.782 236.235C314.448 235.435 318.448 230.769 322.448 225.835C326.448 220.902 334.315 211.302 339.915 204.635C345.382 197.835 354.048 187.169 359.248 180.902C364.315 174.635 370.982 166.635 374.048 162.902C377.115 159.302 384.448 150.369 390.448 143.035C396.448 135.702 402.448 128.369 403.782 126.769C405.115 125.169 407.248 122.369 408.448 120.502L410.715 117.035H403.515C399.515 117.035 395.915 117.302 395.515 117.835Z" fill="black"/>
<path d="M1035.78 129.835C1013.78 131.702 986.048 145.302 964.181 164.635C958.181 169.969 952.848 174.369 952.315 174.369C951.781 174.369 951.781 168.635 952.181 161.569L952.981 148.769L942.048 149.569C936.048 150.102 926.048 151.035 919.781 151.702C913.515 152.369 902.181 153.702 894.448 154.502C873.515 156.769 871.381 157.435 869.515 161.035C867.915 164.635 866.048 171.302 863.781 181.702C863.115 185.302 860.981 194.635 859.248 202.369C857.381 210.102 854.981 220.902 853.781 226.369C851.115 238.769 850.181 243.169 845.915 261.702C844.181 269.702 841.648 281.169 840.448 287.035C839.248 292.902 837.648 299.169 837.115 301.035C836.448 302.902 835.648 306.502 835.248 309.035C834.715 313.169 833.381 319.302 829.115 337.035C828.581 339.569 826.981 346.502 825.781 352.369C824.581 358.235 822.981 365.169 822.448 367.702C820.848 374.102 817.115 391.169 815.781 397.702C815.248 400.635 813.781 407.569 812.448 413.035C811.248 418.502 809.648 425.169 809.115 427.702C808.581 430.235 806.448 439.569 804.448 448.369C802.448 457.169 799.915 468.502 798.848 473.702C797.781 478.769 796.448 485.169 795.781 487.702C795.248 490.235 793.115 499.835 791.115 509.035C789.115 518.235 786.981 527.835 786.448 530.369C785.781 532.902 784.315 539.835 783.115 545.702C780.581 557.835 779.648 561.569 776.448 575.702C774.181 585.569 773.115 591.035 771.115 601.969C770.315 606.502 770.448 607.702 772.048 607.702C773.115 607.702 774.448 607.169 775.248 606.635C775.915 605.969 778.581 604.635 781.115 603.702C783.648 602.769 787.648 601.169 789.781 600.369C792.048 599.435 808.848 592.502 827.115 585.035C845.515 577.435 861.515 570.235 862.848 569.035C864.315 567.702 866.181 561.969 867.781 554.235C869.248 547.302 870.981 539.302 871.648 536.369C872.448 533.435 874.581 524.369 876.448 516.369C878.315 508.235 880.448 499.569 881.115 497.035C881.781 494.502 883.381 486.635 884.448 479.702C887.115 463.435 888.581 455.569 892.448 438.369C894.181 430.635 896.581 419.569 897.915 413.702C900.448 401.835 901.515 399.969 903.648 402.635C904.315 403.569 907.648 407.702 910.848 411.702C931.648 438.102 965.648 445.702 1011.78 434.369C1022.85 431.702 1046.98 418.902 1058.71 409.569C1080.31 392.102 1104.45 361.302 1117.11 335.035C1123.65 321.169 1128.05 308.102 1132.31 289.035C1138.05 263.035 1138.71 258.369 1139.38 237.569C1140.31 211.035 1138.18 199.435 1128.31 179.302C1116.31 154.902 1098.85 139.969 1073.11 131.969C1067.91 130.369 1045.11 129.035 1035.78 129.835ZM1019.38 215.302C1021.65 216.369 1025.65 219.169 1028.31 221.435C1047.38 238.635 1046.85 283.569 1027.38 321.969C1017.65 341.035 1005.25 353.569 987.781 361.969C978.448 366.502 976.981 366.902 965.115 366.902C954.048 366.902 951.648 366.502 945.781 363.435C937.515 359.169 934.315 355.835 929.648 346.369C926.315 339.969 925.915 337.169 925.381 323.702C923.915 280.235 947.381 231.569 976.848 217.569C988.715 211.835 1009.51 210.769 1019.38 215.302Z" fill="black"/>
<path d="M681.115 165.169C677.782 165.835 671.248 167.035 666.448 167.835C624.315 174.769 586.715 200.102 556.448 241.702C535.915 269.835 525.115 295.569 516.982 335.035C511.115 363.435 513.648 394.769 523.648 417.569C530.982 434.369 545.915 451.569 560.315 459.835C566.982 463.569 578.315 468.102 590.448 471.835C598.182 474.235 640.715 474.369 648.448 472.102C651.382 471.302 657.382 469.835 661.782 469.035C685.648 464.235 711.115 451.969 732.982 434.369C777.915 398.635 808.048 333.169 808.048 271.569C808.048 247.569 805.515 235.169 796.715 217.169C782.715 188.369 758.582 171.569 722.448 165.569C709.915 163.569 690.448 163.302 681.115 165.169ZM698.715 242.635C701.648 243.435 706.848 246.769 710.315 249.835C717.515 256.369 720.315 263.035 722.582 279.969C726.182 306.769 714.715 342.902 694.582 367.969C681.782 383.835 668.982 392.902 652.448 397.702C641.915 400.769 627.782 399.969 619.782 395.835C611.382 391.569 608.715 388.769 603.782 378.902C599.782 371.169 599.382 369.169 599.382 358.635C599.382 315.835 627.248 263.035 658.448 247.035C669.782 241.169 687.382 239.169 698.715 242.635Z" fill="black"/>
<path d="M1209.11 319.435C1166.05 331.435 1142.98 377.435 1166.58 404.369C1176.98 416.102 1194.05 419.569 1214.98 414.369C1244.45 406.902 1265.92 383.835 1267.52 358.102C1268.58 340.502 1261.65 328.102 1246.98 321.035C1238.05 316.769 1221.25 316.102 1209.11 319.435Z" fill="black"/>
</svg>
